<?xml version="1.0" encoding="UTF-8"?>
<svg id="Layer_1" xmlns="http://www.w3.org/2000/svg" version="1.1" viewBox="0 0 612 792">
  <!-- Generator: Adobe Illustrator 29.3.0, SVG Export Plug-In . SVG Version: 2.1.0 Build 146)  -->
  <defs>
    <style>
      .st0 {
        fill: #3eb7ad;
      }

      .st1 {
        fill: #68d1e6;
      }
    </style>
  </defs>
  <path class="st0" d="M300.8,411.1c39.3-3.6,72-45.8,103.8-66l1.3-1.9c-18.9-14.3-36.8-29.9-55.7-44.1-15.4-11.6-28.2-20.2-48-22.9-44.4-6.1-92,27.3-87.2,74.9.8,7.7,9,28.7,15.6,32.7,7,4.2,21.5,3.1,29.4,2.4.5-1.9-.4-1.3-1-1.8-4-3.5-9.4-6.5-13.2-10.5-28.3-30.3-5.5-69.7,30.3-78.1,43.4-10.1,67.2,24.5,98.7,46.2l1.2,2.4c-14.3,9.5-27,22-40.9,32.1-9.9,7.2-18.7,11.2-28.4,18.9-2.6,2.1-5.4,4.4-8.2,6.3-5,3.5-10.4,5.7-15.2,9.3,5.6-.4,11.8.5,17.3,0Z"/>
  <path class="st1" d="M237.9,276.1c-30.3,2.9-66.1,37.4-89.7,56.2-2.1,1.7-14.2,9.7-13.8,11.6l53.8,43c22.8,19.1,47.6,28.6,77.7,22.3,40.4-8.5,72.3-49,53.6-89.9-1.3-2.9-7.6-14-9.7-15.7-4.8-3.8-23.4-3.9-29.6-2.6-1.4,1.1,7,5.9,7.7,6.4,46.5,40.2-1.4,94.5-52,84.8-20.8-4-46.5-27.1-63.2-40.6-1.4-1.1-9.4-7.6-9.3-8.4,13.8-10.3,26.8-22.6,40.7-32.6,10.7-7.7,22.6-12,31.4-21.7l19.7-12.9c-5.6.4-11.8-.5-17.3,0Z"/>
</svg>