<svg viewBox="0 0 1080 580" xmlns="http://www.w3.org/2000/svg">
  <defs>
    <linearGradient id="logoGradient" x1="0%" y1="0%" x2="100%" y2="0%">
      <stop offset="0%" style="stop-color:#5DCCDB;stop-opacity:1" />
      <stop offset="50%" style="stop-color:#3EB5C1;stop-opacity:1" />
      <stop offset="100%" style="stop-color:#2A9D8F;stop-opacity:1" />
    </linearGradient>
  </defs>
  <path d="M540 30C240 30 30 290 30 290s210 260 510 260 510-260 510-260S840 30 540 30zm0 430c-94 0-170-76-170-170s76-170 170-170 170 76 170 170-76 170-170 170zm0-270c-55 0-100 45-100 100s45 100 100 100 100-45 100-100-45-100-100-100z" fill="url(#logoGradient)"/>
</svg>